<?xml version="1.0" encoding="UTF-8"?>
<svg xmlns="http://www.w3.org/2000/svg" xmlns:xlink="http://www.w3.org/1999/xlink" viewBox="0 0 64 64" width="64px" height="64px">
<g id="surface5401131">
<path style=" stroke:none;fill-rule:nonzero;fill:rgb(100%,100%,100%);fill-opacity:1;" d="M 32 10.667969 C 43.78125 10.667969 53.332031 20.21875 53.332031 32 C 53.332031 41.472656 47.15625 49.496094 38.613281 52.28125 C 38.617188 52.273438 38.621094 52.261719 38.621094 52.261719 C 38.621094 52.261719 37.179688 51.589844 37.210938 50.382812 C 37.246094 49.058594 37.210938 45.964844 37.210938 44.832031 C 37.210938 42.882812 35.976562 41.5 35.976562 41.5 C 35.976562 41.5 45.652344 41.609375 45.652344 31.285156 C 45.652344 27.300781 43.570312 25.230469 43.570312 25.230469 C 43.570312 25.230469 44.664062 20.976562 43.191406 19.175781 C 41.542969 18.996094 38.585938 20.753906 37.324219 21.574219 C 37.324219 21.574219 35.324219 20.753906 32 20.753906 C 28.671875 20.753906 26.671875 21.574219 26.671875 21.574219 C 25.414062 20.753906 22.457031 18.996094 20.808594 19.175781 C 19.335938 20.980469 20.429688 25.230469 20.429688 25.230469 C 20.429688 25.230469 18.347656 27.304688 18.347656 31.285156 C 18.347656 41.609375 28.019531 41.5 28.019531 41.5 C 28.019531 41.5 27.046875 42.601562 26.832031 44.21875 C 26.160156 44.449219 25.164062 44.734375 24.363281 44.734375 C 22.261719 44.734375 20.664062 42.691406 20.082031 41.746094 C 19.503906 40.816406 18.320312 40.035156 17.21875 40.035156 C 16.492188 40.035156 16.136719 40.398438 16.136719 40.8125 C 16.136719 41.226562 17.15625 41.519531 17.828125 42.289062 C 19.246094 43.910156 19.21875 47.5625 24.265625 47.5625 C 24.816406 47.5625 25.933594 47.425781 26.777344 47.3125 C 26.773438 48.464844 26.769531 49.675781 26.789062 50.382812 C 26.820312 51.589844 25.378906 52.261719 25.378906 52.261719 C 25.378906 52.261719 25.382812 52.273438 25.386719 52.28125 C 16.84375 49.496094 10.667969 41.472656 10.667969 32 C 10.667969 20.21875 20.21875 10.667969 32 10.667969 Z M 32 10.667969 "/>
</g>
</svg>
